<?xml version="1.0" encoding="UTF-8"?>
<svg id="Layer_1" data-name="Layer 1" xmlns="http://www.w3.org/2000/svg" viewBox="0 0 292.38 144">
  <defs>
    <style>
      .cls-1 {
        fill: #019ff9;
      }
    </style>
  </defs>
  <path class="cls-1" d="M51.4,56.79c5.28,0,8.85,2.68,8.85,7.44,0,5.28-3.42,7.88-9,7.88h-5.21v-15.32h5.35M259.8,68.17h-32.72v11.23h16.44c-1.71,5.65-6.62,8.85-13.16,8.85-9.29,0-15.1-7.36-15.1-16.51s6.17-15.99,15.02-15.99c5.28,0,9.52,2.6,12.12,7.14h15.77c-3.12-11.08-15.1-19.48-27.52-19.48-15.99,0-29.45,11.68-29.45,28.33s12.94,28.86,29.23,28.86c18.52,0,29.38-14.5,29.38-29.3v-3.12ZM195.84,44.98h-13.24l-19.28,28.76v-28.76h-12.91l-37.42,54.5h16.18l21.24-31.13v31.13h10.87l21.08-31.05v31.05h13.48v-54.5ZM106.57,99.48l8.48-12.35h-20.13v-42.69h-14.06v55.03h25.71ZM74.98,99.48l-14.95-18.74c8.48-1.49,13.68-8.63,13.68-17.33,0-7.81-4.16-14.28-10.12-16.96-2.9-1.26-7.29-2.01-13.01-2.01h-18v55.03h13.46v-17.77h.15l12.72,17.77h16.06ZM292.38,11.69v132.31l-143.1-11.69v11.69L0,132.31V0l149.29,11.69V0l143.1,11.69Z"/>
</svg>